<?xml version="1.0" encoding="UTF-8"?>
<svg id="map-svg" xmlns="http://www.w3.org/2000/svg" viewBox="628.80 1910.40 1377.20 1444.40" preserveAspectRatio="xMidYMid meet">
  <!-- Preserve West Phase One — generated by scripts/extract_preserve_west.py -->

  <!-- ═══ open space ═══ -->
  <polygon id="open-space" class="open-space-poly" points="1873.60,3301.20 1858.40,3248.80 1855.60,3238.00 1850.80,3224.00 1848.40,3218.00 1846.80,3213.60 1845.20,3210.00 1842.80,3205.20 1839.60,3198.80 1836.00,3192.00 1834.00,3188.00 1831.60,3184.40 1828.00,3178.80 1825.20,3174.40 1820.00,3167.20 1816.40,3162.80 1810.80,3156.00 1806.80,3151.20 1802.40,3146.40 1799.20,3143.60 1796.80,3141.20 1794.00,3138.40 1791.20,3135.60 1787.20,3132.40 1784.40,3129.60 1780.80,3126.80 1777.60,3124.40 1771.60,3120.00 1766.80,3116.80 1762.00,3113.20 1757.60,3110.40 1750.00,3106.40 1742.80,3102.40 1734.00,3098.00 1727.60,3095.20 1716.80,3091.20 1709.20,3088.40 1700.40,3086.00 1691.60,3083.60 1680.80,3081.60 1526.40,3053.60 1474.00,3044.40 1421.60,3035.20 1360.00,3024.00 1346.00,3021.60 1335.20,3019.60 1327.60,3018.00 1322.40,3016.80 1315.60,3015.20 1309.20,3013.60 1299.20,3010.40 1293.60,3008.80 1287.60,3006.80 1282.00,3004.40 1275.20,3001.60 1269.20,2999.20 1266.40,2997.60 1256.00,2992.40 1250.00,2989.20 1242.80,2985.20 1235.20,2980.80 1231.20,2978.00 1228.40,2976.40 1225.20,2974.00 1222.40,2972.00 1220.40,2970.40 1214.00,2966.00 1209.60,2962.00 1203.20,2956.80 1194.00,2948.80 1189.60,2944.80 1179.20,2933.60 1172.80,2926.80 1168.40,2921.20 1167.20,2919.60 1166.00,2918.40 1163.60,2915.20 1163.20,2914.80 1160.80,2911.20 1155.60,2904.00 1152.40,2899.60 1147.20,2891.60 1144.40,2887.20 1141.60,2881.60 1138.80,2876.80 1136.80,2872.80 1134.40,2868.80 1132.80,2865.20 1132.00,2863.20 1129.20,2857.60 1126.40,2850.80 1124.00,2844.80 1122.00,2839.20 1120.00,2833.60 1117.60,2825.60 1114.80,2816.00 1112.80,2807.20 1110.40,2796.80 1108.40,2784.00 1107.20,2773.60 1106.40,2768.40 1106.40,2764.00 1105.60,2752.00 1105.60,2748.40 1105.20,2746.80 1104.80,2745.60 1104.00,2743.20 1102.80,2741.20 1100.80,2738.80 1099.20,2738.00 1098.00,2737.20 1096.40,2736.40 1094.80,2736.00 1091.60,2736.00 1059.60,2737.60 1046.40,2738.00 942.00,2742.80 934.00,2743.20 931.20,2743.60 928.80,2744.80 924.40,2748.00 922.80,2749.60 921.20,2751.20 919.20,2753.20 916.80,2754.40 913.60,2756.00 911.20,2756.80 907.60,2757.60 904.40,2758.00 900.40,2757.60 896.80,2756.80 893.60,2756.00 887.60,2752.40 885.60,2750.80 883.60,2748.80 882.00,2746.40 880.80,2744.40 879.60,2742.40 878.40,2739.60 877.60,2735.20 877.20,2732.40 877.20,2729.60 877.60,2727.20 878.00,2724.40 878.80,2722.00 880.80,2718.00 882.40,2715.60 884.40,2713.20 888.00,2710.00 890.40,2708.40 894.80,2706.40 898.00,2705.60 900.40,2705.20 903.60,2704.80 909.20,2705.20 916.00,2707.60 920.00,2710.40 922.80,2712.80 924.80,2714.40 927.20,2716.00 930.40,2716.40 932.80,2716.80 1076.40,2710.00 1088.40,2709.60 1094.40,2708.40 1098.00,2706.40 1100.80,2703.20 1102.40,2700.40 1102.80,2695.60 1098.00,2592.40 1124.80,2592.00 1129.20,2687.60 1129.60,2694.40 1131.20,2700.40 1134.00,2703.60 1138.40,2706.00 1140.80,2706.80 1143.60,2706.80 1179.60,2705.20 1186.80,2704.80 1191.60,2704.80 1196.00,2704.40 1204.00,2703.20 1211.20,2702.00 1218.00,2700.40 1224.40,2698.40 1230.40,2696.00 1235.60,2694.00 1240.80,2691.60 1244.00,2690.00 1251.60,2685.20 1257.20,2681.20 1260.80,2678.40 1264.00,2676.00 1266.40,2673.60 1271.20,2669.20 1273.60,2666.40 1276.80,2662.80 1280.40,2658.80 1284.00,2653.60 1286.40,2650.00 1289.20,2645.60 1292.00,2640.80 1293.60,2637.20 1294.40,2635.20 1297.20,2630.00 1300.40,2622.80 1304.00,2616.00 1307.20,2608.80 1310.40,2602.40 1330.80,2560.80 1380.00,2459.20 1420.40,2376.00 1423.60,2369.20 1426.00,2364.00 1428.00,2360.40 1431.60,2353.60 1434.40,2348.40 1437.20,2342.80 1438.80,2340.00 1440.80,2336.80 1442.40,2333.60 1444.40,2330.40 1447.20,2325.60 1449.60,2322.00 1452.40,2317.20 1484.80,2265.60 1515.60,2216.00 1528.40,2196.00 1531.20,2191.20 1532.80,2188.80 1533.20,2186.00 1533.20,2182.80 1532.80,2180.40 1532.00,2176.80 1532.00,2173.20 1532.40,2168.80 1533.20,2165.20 1534.00,2162.40 1535.60,2159.60 1537.60,2156.80 1539.20,2154.80 1542.00,2152.40 1544.80,2150.40 1548.80,2148.40 1552.80,2147.20 1555.20,2146.80 1560.00,2146.80 1564.00,2147.20 1569.20,2148.80 1572.40,2150.80 1577.60,2154.80 1579.60,2157.20 1581.60,2160.00 1584.00,2165.60 1584.80,2169.60 1584.80,2174.00 1584.00,2180.40 1582.40,2184.80 1580.40,2188.00 1576.80,2192.40 1572.40,2195.60 1566.80,2198.40 1562.80,2199.20 1560.40,2200.00 1557.60,2201.60 1554.00,2205.20 1494.40,2300.40 1474.80,2331.60 1470.00,2338.80 1466.00,2346.00 1462.40,2352.00 1458.00,2360.00 1452.80,2369.60 1450.00,2375.60 1447.60,2380.80 1444.00,2387.60 1418.80,2440.00 1387.20,2504.80 1344.40,2592.80 1327.60,2627.60 1321.20,2640.80 1319.60,2644.00 1315.60,2652.40 1313.60,2656.40 1310.80,2661.20 1307.60,2666.40 1303.20,2672.00 1299.20,2677.20 1295.20,2682.40 1292.00,2685.60 1288.80,2689.20 1284.40,2693.20 1280.00,2697.20 1276.40,2700.00 1271.20,2704.00 1266.40,2707.20 1260.40,2710.80 1253.20,2714.80 1247.60,2717.60 1242.40,2720.00 1237.20,2722.00 1231.20,2724.00 1224.80,2726.00 1221.20,2727.20 1212.80,2728.80 1206.00,2730.00 1199.60,2730.80 1192.80,2731.20 1152.80,2733.20 1144.80,2733.60 1140.80,2734.40 1137.60,2735.60 1135.60,2737.60 1133.60,2740.80 1132.00,2744.40 1132.00,2749.60 1132.40,2756.80 1133.20,2768.80 1134.80,2781.60 1136.80,2794.00 1139.60,2805.20 1143.20,2818.40 1146.40,2828.40 1151.60,2842.00 1157.20,2854.40 1162.80,2865.60 1169.20,2876.40 1178.80,2891.20 1188.40,2904.00 1194.80,2911.60 1205.60,2923.20 1213.60,2930.40 1222.00,2938.00 1227.60,2942.80 1234.00,2947.60 1243.60,2954.40 1250.00,2958.40 1258.40,2963.60 1264.00,2966.80 1273.60,2971.60 1282.40,2976.00 1289.20,2978.80 1300.00,2982.80 1307.60,2985.20 1313.60,2987.20 1325.60,2990.40 1333.20,2992.00 1340.00,2993.60 1428.00,3009.20 1430.80,3009.20 1432.80,3009.20 1436.00,3008.00 1438.00,3006.80 1439.60,3005.60 1441.20,3003.60 1442.40,3001.60 1443.20,2998.40 1444.00,2993.60 1445.20,2988.80 1469.20,2854.40 1470.40,2848.40 1471.20,2842.00 1472.00,2837.60 1471.60,2834.40 1470.40,2831.20 1468.40,2828.00 1467.20,2826.40 1466.00,2823.60 1464.80,2820.40 1463.60,2814.00 1464.00,2808.80 1464.80,2804.40 1466.80,2800.00 1468.80,2796.80 1472.00,2793.60 1475.60,2790.80 1477.60,2789.20 1482.00,2787.60 1485.20,2786.80 1490.40,2786.40 1494.80,2786.80 1499.20,2788.00 1504.40,2790.40 1508.80,2794.00 1511.60,2797.20 1514.00,2801.60 1515.60,2806.00 1516.40,2810.40 1516.40,2815.20 1515.60,2820.00 1513.20,2826.00 1509.60,2830.80 1504.00,2835.60 1501.60,2837.20 1500.00,2839.20 1498.00,2844.40 1497.20,2849.20 1495.60,2857.20 1492.80,2872.40 1490.00,2888.00 1486.00,2911.60 1482.80,2929.20 1479.60,2947.20 1474.80,2973.60 1470.80,2995.20 1469.60,3003.20 1469.60,3007.20 1470.40,3011.20 1473.20,3014.80 1476.00,3017.20 1480.40,3018.40 1485.60,3019.60 1585.60,3037.60 1661.60,3051.20 1676.00,3053.60 1685.20,3055.20 1699.60,3058.40 1709.20,3060.80 1717.60,3063.20 1724.80,3066.00 1734.80,3069.60 1746.00,3074.40 1752.80,3077.60 1759.20,3081.20 1767.20,3085.20 1772.00,3088.40 1780.80,3094.00 1790.80,3100.80 1797.20,3106.00 1804.80,3112.40 1811.20,3118.00 1814.00,3120.80 1820.00,3126.80 1824.40,3131.20 1833.20,3141.20 1838.40,3148.00 1844.00,3155.20 1848.40,3161.60 1852.40,3167.60 1855.60,3172.80 1861.20,3182.80 1865.60,3191.60 1870.40,3201.60 1873.60,3208.80 1876.40,3216.80 1880.40,3228.80 1882.00,3234.80 1884.40,3242.40 1886.80,3251.20 1888.80,3258.00 1890.40,3263.20 1891.20,3266.40 1892.80,3272.80 1895.60,3281.60 1899.20,3294.40 1873.60,3301.20"/>

  <!-- ═══ lots ═══ -->
  <g id="lots">
    <polygon id="lot-1" class="lot" data-lot="1" data-lot-id="lot-1" points="1814.00,3120.80 1808.80,3116.00 1801.20,3109.20 1794.80,3104.40 1790.80,3100.80 1783.20,3095.60 1777.60,3092.00 1772.00,3088.40 1865.60,2929.60 1921.60,3006.00 1814.00,3120.80"/>
    <polygon id="lot-2" class="lot" data-lot="2" data-lot-id="lot-2" points="1772.00,3088.40 1765.60,3084.40 1756.40,3079.60 1750.80,3076.80 1744.40,3073.60 1737.60,3070.80 1732.00,3068.40 1722.40,3064.80 1790.00,2868.40 1828.40,2879.20 1865.60,2929.60 1772.00,3088.40"/>
    <polygon id="lot-3" class="lot" data-lot="3" data-lot-id="lot-3" points="1722.40,3064.80 1709.20,3060.80 1699.60,3058.40 1690.00,3056.00 1669.20,3052.40 1642.00,3047.60 1707.20,2845.20 1790.00,2868.40 1722.40,3064.80"/>
    <polygon id="lot-4" class="lot" data-lot="4" data-lot-id="lot-4" points="1504.40,2790.40 1499.20,2788.00 1494.80,2786.80 1490.40,2786.40 1485.20,2786.80 1482.00,2787.60 1477.60,2789.20 1475.60,2790.80 1472.00,2793.60 1468.80,2796.80 1399.60,2744.40 1442.00,2699.20 1551.20,2584.00 1602.80,2529.20 1664.40,2716.00 1574.80,2698.00 1508.80,2794.00 1504.40,2790.40"/>
    <polygon id="lot-5" class="lot" data-lot="5" data-lot-id="lot-5" points="1642.00,3047.60 1485.60,3019.60 1480.40,3018.40 1476.00,3017.20 1473.20,3014.80 1470.40,3011.20 1469.60,3007.20 1469.60,3003.20 1492.80,2872.40 1687.20,2907.20 1642.00,3047.60"/>
    <polygon id="lot-6" class="lot" data-lot="6" data-lot-id="lot-6" points="1492.80,2872.40 1494.40,2863.20 1496.00,2854.00 1498.00,2844.40 1498.80,2841.20 1500.00,2839.20 1501.60,2837.20 1504.00,2835.60 1509.60,2830.80 1512.00,2827.60 1514.40,2823.60 1515.60,2820.00 1516.40,2815.20 1516.40,2810.40 1515.60,2806.00 1514.00,2801.60 1512.80,2798.80 1511.60,2797.20 1508.80,2794.00 1574.80,2698.00 1664.40,2716.00 1707.20,2845.20 1687.20,2907.20 1492.80,2872.40"/>
    <polygon id="lot-7" class="lot" data-lot="7" data-lot-id="lot-7" points="1321.20,2640.80 1442.00,2699.20 1399.60,2744.40 1381.20,2763.60 1371.20,2819.60 1276.40,2700.00 1280.00,2697.20 1281.60,2695.60 1284.40,2693.20 1288.80,2689.20 1292.00,2685.60 1295.20,2682.40 1296.80,2680.40 1299.20,2677.20 1302.00,2674.00 1303.20,2672.00 1306.00,2668.40 1307.60,2666.40 1310.80,2661.20 1312.00,2658.80 1313.60,2656.40 1315.60,2652.40 1317.20,2648.80 1319.60,2644.00 1321.20,2640.80"/>
    <polygon id="lot-8" class="lot" data-lot="8" data-lot-id="lot-8" points="1542.00,2152.40 1539.20,2154.80 1537.60,2156.80 1535.60,2159.60 1534.00,2162.40 1533.20,2165.20 1532.40,2168.80 1532.00,2173.20 1532.00,2176.80 1532.80,2180.40 1533.20,2182.80 1533.20,2186.00 1532.80,2188.80 1531.20,2191.20 1529.60,2194.00 1528.40,2196.00 1526.40,2199.60 1515.60,2216.00 1323.60,2086.80 1338.80,2082.40 1414.80,2059.20 1457.20,2046.40 1542.00,2152.40"/>
    <polygon id="lot-9" class="lot" data-lot="9" data-lot-id="lot-9" points="1418.80,2440.00 1563.20,2510.40 1602.80,2529.20 1551.20,2584.00 1387.20,2504.80 1418.80,2440.00"/>
    <polygon id="lot-10" class="lot" data-lot="10" data-lot-id="lot-10" points="1603.60,2352.40 1494.40,2300.40 1499.20,2292.80 1501.60,2288.80 1549.20,2213.20 1552.80,2207.20 1554.00,2205.20 1557.60,2201.60 1560.40,2200.00 1562.80,2199.20 1566.80,2198.40 1569.60,2197.20 1572.40,2195.60 1574.80,2194.00 1576.80,2192.40 1578.80,2190.00 1580.40,2188.00 1582.40,2184.80 1584.00,2180.40 1652.80,2199.20 1656.80,2251.20 1603.60,2352.40"/>
    <polygon id="lot-11" class="lot" data-lot="11" data-lot-id="lot-11" points="1421.60,3035.20 1380.80,3262.40 1360.80,3259.60 1347.20,3257.60 1328.40,3255.20 1360.00,3024.00 1421.60,3035.20"/>
    <polygon id="lot-12" class="lot" data-lot="12" data-lot-id="lot-12" points="1526.40,3053.60 1486.00,3278.80 1433.60,3270.40 1474.00,3044.40 1526.40,3053.60"/>
    <polygon id="lot-13" class="lot" data-lot="13" data-lot-id="lot-13" points="1526.40,3053.60 1578.40,3063.20 1538.40,3286.80 1486.00,3278.80 1526.40,3053.60"/>
    <polygon id="lot-14" class="lot" data-lot="14" data-lot-id="lot-14" points="1848.40,3161.60 1844.00,3155.20 1841.20,3151.60 1838.40,3148.00 1833.20,3141.20 1826.80,3134.00 1822.40,3129.20 1817.20,3124.00 1814.00,3120.80 1921.60,3006.00 1966.00,3051.20 1848.40,3161.60"/>
    <polygon id="lot-15" class="lot" data-lot="15" data-lot-id="lot-15" points="1630.80,3072.40 1591.20,3294.80 1538.40,3286.80 1578.40,3063.20 1630.80,3072.40"/>
    <polygon id="lot-16" class="lot" data-lot="16" data-lot-id="lot-16" points="1709.20,3088.40 1663.60,3192.00 1643.60,3302.80 1591.20,3294.80 1630.80,3072.40 1656.80,3077.20 1670.00,3079.60 1675.60,3080.40 1680.80,3081.60 1687.60,3082.80 1694.00,3084.40 1700.40,3086.00 1703.20,3086.80 1709.20,3088.40"/>
    <polygon id="lot-17" class="lot" data-lot="17" data-lot-id="lot-17" points="1757.60,3110.40 1714.80,3207.60 1714.40,3232.40 1713.60,3312.40 1705.20,3311.60 1698.40,3311.20 1692.40,3310.40 1687.60,3309.60 1680.40,3308.40 1671.60,3307.20 1665.20,3306.00 1658.40,3305.20 1643.60,3302.80 1663.60,3192.00 1709.20,3088.40 1713.60,3090.00 1716.80,3091.20 1723.20,3093.60 1727.60,3095.20 1730.40,3096.40 1734.00,3098.00 1737.60,3100.00 1742.80,3102.40 1745.60,3104.00 1750.00,3106.40 1753.60,3108.40 1757.60,3110.40"/>
    <polygon id="lot-18" class="lot" data-lot="18" data-lot-id="lot-18" points="1842.80,3205.20 1768.40,3234.80 1714.40,3232.40 1714.80,3207.60 1757.60,3110.40 1762.00,3113.20 1764.40,3114.80 1766.80,3116.80 1771.60,3120.00 1775.20,3122.80 1777.60,3124.40 1780.80,3126.80 1784.40,3129.60 1789.20,3134.00 1794.00,3138.40 1799.20,3143.60 1802.40,3146.40 1805.20,3149.60 1806.80,3151.20 1810.80,3156.00 1814.80,3160.40 1816.40,3162.80 1820.00,3167.20 1822.00,3170.00 1825.20,3174.40 1828.00,3178.80 1831.60,3184.40 1834.80,3190.00 1838.00,3195.60 1840.40,3200.40 1841.60,3202.80 1842.80,3205.20"/>
    <polygon id="lot-19" class="lot" data-lot="19" data-lot-id="lot-19" points="1842.80,3205.20 1843.60,3206.80 1845.20,3210.00 1847.60,3215.20 1848.40,3218.00 1850.40,3222.80 1851.60,3225.60 1853.20,3230.40 1854.40,3234.40 1856.00,3240.40 1857.20,3244.40 1858.40,3248.80 1860.00,3253.60 1861.20,3257.60 1862.40,3262.80 1863.60,3266.80 1865.20,3272.40 1866.40,3276.40 1868.00,3281.60 1869.60,3287.20 1873.60,3301.20 1871.60,3301.60 1867.20,3302.80 1860.00,3304.40 1854.80,3305.20 1849.60,3306.40 1843.20,3307.60 1836.40,3308.40 1832.00,3309.20 1825.20,3310.00 1817.20,3311.20 1812.40,3311.60 1804.00,3312.40 1794.00,3313.20 1786.00,3314.00 1780.00,3314.00 1772.40,3314.40 1763.60,3314.40 1756.40,3314.80 1745.60,3314.40 1733.20,3314.00 1726.00,3313.60 1713.60,3312.40 1714.40,3232.40 1768.40,3234.80 1842.80,3205.20"/>
    <polygon id="lot-20" class="lot" data-lot="20" data-lot-id="lot-20" points="1399.60,2744.40 1468.80,2796.80 1466.80,2800.00 1464.80,2804.40 1464.00,2808.80 1463.60,2811.60 1463.60,2814.00 1464.00,2818.40 1464.80,2820.40 1467.20,2826.40 1469.20,2829.20 1470.40,2831.20 1471.60,2834.40 1472.00,2837.60 1471.60,2840.00 1471.20,2842.00 1459.60,2908.00 1358.40,2890.00 1362.00,2870.80 1371.20,2819.60 1381.20,2763.60 1399.60,2744.40"/>
    <polygon id="lot-21" class="lot" data-lot="21" data-lot-id="lot-21" points="1459.60,2908.00 1448.80,2968.80 1445.60,2986.40 1443.60,2996.00 1442.40,3001.60 1441.20,3003.60 1439.60,3005.60 1436.00,3008.00 1432.80,3009.20 1428.00,3009.20 1340.00,2993.60 1358.40,2890.00 1459.60,2908.00"/>
    <polygon id="lot-22" class="lot" data-lot="22" data-lot-id="lot-22" points="1474.00,3044.40 1433.60,3270.40 1380.80,3262.40 1421.60,3035.20 1474.00,3044.40"/>
    <polygon id="lot-23" class="lot" data-lot="23" data-lot-id="lot-23" points="1360.00,3024.00 1345.60,3130.40 1342.40,3152.00 1338.80,3177.60 1328.40,3255.20 1275.60,3249.60 1284.00,3093.60 1299.20,3010.40 1304.00,3012.00 1309.20,3013.60 1313.20,3014.80 1320.00,3016.40 1324.80,3017.60 1332.00,3018.80 1335.20,3019.60 1342.40,3020.80 1348.40,3022.00 1354.00,3022.80 1360.00,3024.00"/>
    <polygon id="lot-24" class="lot" data-lot="24" data-lot-id="lot-24" points="1155.60,2904.00 1157.20,2906.40 1158.80,2909.20 1160.80,2911.20 1163.60,2915.20 1167.20,2919.60 1168.40,2921.20 1172.80,2926.80 1176.80,2931.20 1179.20,2933.60 1181.60,2936.40 1184.40,2939.60 1189.60,2944.80 1058.80,3078.80 1017.60,3076.00 1047.20,2989.20 1046.40,2980.00 1155.60,2904.00"/>
    <polygon id="lot-25" class="lot" data-lot="25" data-lot-id="lot-25" points="1231.20,2978.00 1160.00,3086.00 1058.80,3078.80 1189.60,2944.80 1196.00,2950.40 1200.80,2954.80 1204.80,2958.40 1209.60,2962.00 1215.60,2966.80 1220.40,2970.40 1225.20,2974.00 1228.40,2976.40 1231.20,2978.00"/>
    <polygon id="lot-26" class="lot" data-lot="26" data-lot-id="lot-26" points="1299.20,3010.40 1284.00,3093.60 1160.00,3086.00 1231.20,2978.00 1235.20,2980.80 1240.00,2983.60 1244.80,2986.40 1250.00,2989.20 1257.60,2993.60 1264.00,2996.40 1272.40,3000.40 1280.00,3003.60 1287.60,3006.80 1293.60,3008.80 1299.20,3010.40"/>
    <polygon id="lot-27" class="lot" data-lot="27" data-lot-id="lot-27" points="1340.00,2993.60 1333.20,2992.00 1327.60,2990.80 1321.60,2989.20 1307.60,2985.20 1293.20,2980.40 1279.20,2974.40 1264.00,2966.80 1250.00,2958.40 1243.60,2954.40 1234.00,2947.60 1300.80,2857.60 1362.00,2870.80 1340.00,2993.60"/>
    <polygon id="lot-28" class="lot" data-lot="28" data-lot-id="lot-28" points="1362.00,2870.80 1300.80,2857.60 1254.00,2807.60 1224.80,2726.00 1228.80,2724.80 1233.60,2723.20 1237.20,2722.00 1242.40,2720.00 1247.60,2717.60 1253.20,2714.80 1257.20,2712.80 1266.40,2707.20 1273.20,2702.40 1276.40,2700.00 1371.20,2819.60 1362.00,2870.80"/>
    <polygon id="lot-29" class="lot" data-lot="29" data-lot-id="lot-29" points="1321.20,2640.80 1325.60,2632.00 1332.00,2618.80 1387.20,2504.80 1551.20,2584.00 1442.00,2699.20 1321.20,2640.80"/>
    <polygon id="lot-30" class="lot" data-lot="30" data-lot-id="lot-30" points="1330.80,2560.80 1325.60,2570.80 1321.20,2580.00 1316.80,2589.60 1312.80,2597.60 1309.60,2604.40 1305.60,2612.40 1300.40,2622.80 1298.40,2627.20 1294.40,2635.20 1292.00,2640.80 1290.40,2643.60 1289.20,2645.60 1286.40,2650.00 1284.00,2653.60 1282.40,2655.60 1280.40,2658.80 1276.80,2662.80 1273.60,2666.40 1271.20,2669.20 1269.20,2671.20 1266.40,2673.60 1211.20,2581.60 1231.60,2512.80 1330.80,2560.80"/>
    <polygon id="lot-31" class="lot" data-lot="31" data-lot-id="lot-31" points="1380.00,2459.20 1330.80,2560.80 1231.60,2512.80 1241.60,2479.60 1262.80,2407.20 1264.00,2403.20 1380.00,2459.20"/>
    <polygon id="lot-32" class="lot" data-lot="32" data-lot-id="lot-32" points="1431.60,2353.60 1428.40,2359.20 1423.60,2369.20 1414.40,2387.60 1380.00,2459.20 1264.00,2403.20 1284.40,2334.40 1297.60,2289.60 1431.60,2353.60"/>
    <polygon id="lot-33" class="lot" data-lot="33" data-lot-id="lot-33" points="1515.60,2216.00 1484.80,2265.60 1262.00,2131.20 1256.80,2107.20 1323.60,2086.80 1515.60,2216.00"/>
    <polygon id="lot-34" class="lot" data-lot="34" data-lot-id="lot-34" points="1484.80,2265.60 1476.80,2278.40 1469.60,2289.60 1464.40,2298.40 1459.20,2306.40 1455.60,2312.00 1452.40,2317.20 1449.60,2322.00 1445.60,2328.40 1442.40,2333.60 1438.80,2340.00 1435.60,2345.60 1431.60,2353.60 1297.60,2289.60 1291.60,2262.40 1275.60,2191.60 1262.00,2131.20 1484.80,2265.60"/>
    <polygon id="lot-35" class="lot" data-lot="35" data-lot-id="lot-35" points="1494.40,2300.40 1603.60,2352.40 1619.60,2360.00 1588.40,2442.80 1450.00,2375.60 1455.60,2364.40 1458.00,2360.00 1462.40,2352.00 1466.00,2346.00 1470.00,2338.80 1474.80,2331.60 1476.80,2328.00 1481.60,2320.40 1487.20,2311.60 1494.40,2300.40"/>
    <polygon id="lot-36" class="lot" data-lot="36" data-lot-id="lot-36" points="1428.00,2420.80 1436.00,2404.00 1441.20,2394.00 1444.00,2387.60 1449.20,2377.60 1450.00,2375.60 1588.40,2442.80 1563.20,2510.40 1418.80,2440.00 1428.00,2420.80"/>
    <polygon id="lot-37" class="lot" data-lot="37" data-lot-id="lot-37" points="1097.60,2576.40 1098.00,2592.40 1100.40,2643.60 1101.60,2667.20 1102.40,2680.00 1102.80,2688.40 1102.80,2695.60 1102.80,2698.40 1102.40,2700.40 1100.80,2703.20 1099.60,2705.20 1098.00,2706.40 1094.40,2708.40 1090.40,2709.20 1084.00,2709.60 1018.40,2712.80 1012.00,2580.40 1097.60,2576.40"/>
    <polygon id="lot-38" class="lot" data-lot="38" data-lot-id="lot-38" points="1266.40,2673.60 1264.00,2676.00 1260.80,2678.40 1257.20,2681.20 1254.80,2682.80 1251.60,2685.20 1249.20,2686.40 1246.00,2688.40 1244.00,2690.00 1240.80,2691.60 1237.60,2693.20 1233.60,2694.80 1230.40,2696.00 1227.20,2697.20 1224.40,2698.40 1218.00,2700.40 1214.40,2701.20 1208.40,2702.80 1204.00,2703.20 1196.00,2704.40 1186.80,2704.80 1179.60,2705.20 1174.40,2705.60 1168.40,2705.60 1160.80,2706.00 1156.40,2706.40 1149.20,2706.80 1143.60,2706.80 1140.80,2706.80 1138.40,2706.00 1134.00,2703.60 1131.20,2700.40 1130.00,2696.40 1129.60,2691.60 1124.80,2592.00 1209.60,2588.00 1211.20,2581.60 1266.40,2673.60"/>
    <polygon id="lot-39" class="lot" data-lot="39" data-lot-id="lot-39" points="1157.20,2854.40 1152.80,2844.40 1151.60,2842.00 1150.00,2838.80 1146.40,2828.40 1144.40,2822.00 1143.20,2818.40 1141.60,2813.20 1139.60,2805.20 1136.80,2794.00 1134.80,2781.60 1133.60,2773.20 1133.20,2768.80 1132.80,2762.00 1132.40,2756.80 1132.00,2749.60 1132.00,2744.40 1133.60,2740.80 1135.60,2737.60 1137.60,2735.60 1140.80,2734.40 1144.80,2733.60 1149.60,2733.20 1152.80,2733.20 1159.20,2732.80 1165.60,2732.40 1180.40,2731.60 1187.20,2731.60 1192.80,2731.20 1202.00,2730.40 1206.00,2730.00 1212.80,2728.80 1216.80,2728.00 1221.20,2727.20 1224.80,2726.00 1254.00,2807.60 1157.20,2854.40"/>
    <polygon id="lot-40" class="lot" data-lot="40" data-lot-id="lot-40" points="1300.80,2857.60 1234.00,2947.60 1222.00,2938.00 1213.60,2930.40 1202.40,2919.60 1194.80,2911.60 1190.00,2905.60 1183.60,2897.60 1178.80,2891.20 1174.00,2883.60 1169.20,2876.40 1164.80,2868.80 1157.20,2854.40 1254.00,2807.60 1300.80,2857.60"/>
    <polygon id="lot-41" class="lot" data-lot="41" data-lot-id="lot-41" points="1132.80,2865.20 1134.40,2868.80 1136.80,2872.80 1138.80,2876.80 1140.40,2880.00 1143.20,2885.20 1146.00,2889.60 1149.20,2894.40 1152.40,2899.60 1155.60,2904.00 1046.40,2980.00 1047.20,2989.20 1017.60,3076.00 668.80,3071.20 720.40,2927.20 821.60,2930.40 866.80,2920.00 944.00,2957.20 1000.40,2955.20 1054.80,2920.40 1132.80,2865.20"/>
    <polygon id="lot-42" class="lot" data-lot="42" data-lot-id="lot-42" points="990.40,2740.80 1000.40,2955.20 944.00,2957.20 934.00,2743.20 990.40,2740.80"/>
    <polygon id="lot-43" class="lot" data-lot="43" data-lot-id="lot-43" points="934.00,2743.20 944.00,2957.20 866.80,2920.00 821.60,2930.40 893.60,2756.00 896.80,2756.80 900.40,2757.60 904.40,2758.00 907.60,2757.60 911.20,2756.80 913.60,2756.00 916.80,2754.40 919.20,2753.20 921.20,2751.20 922.80,2749.60 924.40,2748.00 926.80,2746.00 928.80,2744.80 931.20,2743.60 934.00,2743.20"/>
    <polygon id="lot-44" class="lot" data-lot="44" data-lot-id="lot-44" points="932.80,2716.80 930.40,2716.40 927.20,2716.00 924.80,2714.40 922.80,2712.80 920.00,2710.40 916.00,2707.60 913.20,2706.40 909.20,2705.20 903.60,2704.80 900.40,2705.20 894.80,2706.40 892.40,2707.60 890.40,2708.40 888.00,2710.00 884.40,2713.20 882.40,2715.60 880.80,2718.00 810.00,2677.60 842.00,2588.40 926.80,2584.40 932.80,2716.80"/>
    <polygon id="lot-45" class="lot" data-lot="45" data-lot-id="lot-45" points="1652.80,2199.20 1584.00,2180.40 1584.80,2177.60 1584.80,2174.00 1584.80,2169.60 1584.00,2165.60 1582.80,2162.40 1581.60,2160.00 1579.60,2157.20 1577.60,2154.80 1574.80,2152.40 1572.40,2150.80 1569.20,2148.80 1564.00,2147.20 1560.00,2146.80 1555.20,2146.80 1552.80,2147.20 1548.80,2148.40 1546.80,2149.20 1544.80,2150.40 1542.00,2152.40 1457.20,2046.40 1600.80,1950.40 1642.00,2066.80 1652.80,2199.20"/>
    <polygon id="lot-46" class="lot" data-lot="46" data-lot-id="lot-46" points="880.80,2718.00 878.80,2722.00 878.00,2724.40 877.60,2727.20 877.20,2729.60 877.20,2732.40 877.60,2735.20 878.00,2737.60 878.40,2739.60 879.60,2742.40 880.80,2744.40 882.00,2746.40 883.60,2748.80 885.60,2750.80 887.60,2752.40 890.00,2754.00 890.80,2754.80 893.60,2756.00 821.60,2930.40 720.40,2927.20 810.00,2677.60 880.80,2718.00"/>
    <polygon id="lot-47" class="lot" data-lot="47" data-lot-id="lot-47" points="1046.40,2738.00 1070.00,2736.80 1079.60,2736.40 1085.20,2736.40 1089.20,2736.00 1091.60,2736.00 1094.80,2736.00 1096.40,2736.40 1098.00,2737.20 1100.80,2738.80 1101.20,2739.20 1102.80,2741.20 1104.00,2743.20 1104.80,2745.60 1105.20,2746.80 1105.60,2748.40 1105.60,2752.00 1106.00,2758.00 1106.40,2764.00 1106.40,2768.40 1107.20,2773.60 1107.60,2777.20 1108.00,2781.20 1108.40,2784.00 1109.20,2788.40 1109.60,2790.80 1110.00,2794.00 1110.40,2796.80 1111.20,2799.60 1111.60,2802.40 1112.80,2807.20 1113.60,2810.80 1114.80,2816.00 1115.60,2818.80 1116.40,2821.60 1117.60,2825.60 1118.40,2828.80 1119.60,2831.60 1120.00,2833.60 1122.00,2839.20 1123.20,2842.00 1124.00,2844.80 1126.40,2850.80 1127.60,2853.60 1129.20,2857.60 1130.80,2861.20 1132.80,2865.20 1054.80,2920.40 1046.40,2738.00"/>
    <polygon id="lot-48" class="lot" data-lot="48" data-lot-id="lot-48" points="990.40,2740.80 1046.40,2738.00 1054.80,2920.40 1000.40,2955.20 990.40,2740.80"/>
  </g>

  <!-- lot labels: JS populateLabels() appends .lot-label-group children here -->
  <g class="labels"></g>

</svg>